<svg xmlns="http://www.w3.org/2000/svg" version="1.1" xmlns:xlink="http://www.w3.org/1999/xlink" xmlns:svgjs="http://svgjs.dev/svgjs" width="100%" height="100%" viewBox="0 0 1000 600"><rect width="1000" height="600" x="0" y="0" fill="black"/><g><circle r="166.66666666666666" cx="334.60952250162757" cy="356.83173347586273" fill="white" transform="matrix(0.7443008109171871,0,0,0.7443008109171871,0,34.40984378353528)"/><path d="M284.2509211770539 281.8317473573735L284.2509211770539 281.8317473573735Q286.98400897668495 281.8317473573735 288.29240207225297 282.5295570083431Q289.60079516782105 283.198291257189 291.2871684909976 285.2917202100979L291.2871684909976 285.2917202100979L378.1644700367153 398.3368836671763Q377.8446406133542 395.60379586754533 377.72833900485927 393.04516048065665Q377.64111279848805 390.4865250937681 377.64111279848805 388.07326671749814L377.64111279848805 388.07326671749814L377.64111279848805 281.8317473573735L395.43525889821336 281.8317473573735L395.43525889821336 431.83174691371806L385.17164194853524 431.83174691371806Q382.7583835722653 431.83174691371806 381.13016105333617 430.98856025212984Q379.50193853440703 430.1453735905415 377.9318668197254 428.1682462461276L377.9318668197254 428.1682462461276L291.17086688250265 315.23938439754403Q291.3743946973688 317.8561705886802 291.4906963058637 320.3566551713213Q291.5779225122349 322.8571397539625 291.5779225122349 324.95056870687125L291.5779225122349 324.95056870687125L291.5779225122349 431.83174691371806L273.7837764125096 431.83174691371806L273.7837764125096 281.8317473573735L284.2509211770539 281.8317473573735Z " fill="black" transform="matrix(0.7443008109171871,0,0,0.7443008109171871,0,34.40984378353528)"/><path d="M594.6822647588276 285.8608463157193L594.6822647588276 285.8608463157193Q597.3123710523308 285.8608463157193 598.57146449071 286.53236281618825Q599.8305579290893 287.17589946247097 601.4533894718892 289.19044896387777L601.4533894718892 289.19044896387777L685.0571937802698 397.976122039843Q684.7494153842216 395.3460157463397 684.6374959674768 392.88378857795357Q684.5535564049181 390.4215614095676 684.5535564049181 388.09923351211256L684.5535564049181 388.09923351211256L684.5535564049181 285.8608463157193L701.6772271668756 285.8608463157193L701.6772271668756 430.2089140623511L691.8003386391453 430.2089140623511Q689.4780107416902 430.2089140623511 687.9111389072627 429.3974982909512Q686.3442670728352 428.5860825195512 684.8333549467802 426.68345243488926L684.8333549467802 426.68345243488926L601.3414700551443 318.00969877566894Q601.5373290344478 320.5278856524274 601.6492484511925 322.93415311244104Q601.7331880137513 325.34042057245466 601.7331880137513 327.35497007386147L601.7331880137513 327.35497007386147L601.7331880137513 430.2089140623511L584.6095172517937 430.2089140623511L584.6095172517937 285.8608463157193L594.6822647588276 285.8608463157193ZM774.4808077593812 326.5715341566477L774.4808077593812 326.5715341566477Q783.6581999324565 326.5715341566477 791.4086195420352 329.621338262944Q799.159039151614 332.6991222234266 804.8109696972274 338.490952039971Q810.4629002428409 344.28278185651544 813.624623765882 352.78865752912174Q816.7863472889231 361.3225130559144 816.7863472889231 372.17869648016193L816.7863472889231 372.17869648016193Q816.7863472889231 376.431634316465 815.8909919549646 377.8306270257753Q814.995636621006 379.2296197350856 812.4774497442476 379.2296197350856L812.4774497442476 379.2296197350856L744.570343634328 379.2296197350856Q744.7662026136313 388.91064928351256 747.2004499278313 396.07349195518094Q749.6067173878449 403.2083547726633 753.8316753699619 407.9929098385043Q758.084613206265 412.7774649043453 763.9044228769957 415.1557525101728Q769.7522124019125 417.50606026181407 776.9989946361396 417.50606026181407L776.9989946361396 417.50606026181407Q783.7701193492012 417.50606026181407 788.6386139776009 415.9671682815727Q793.5350884601869 414.4002964471453 797.0605500876486 412.58160592504197Q800.5860117151104 410.76291540293863 802.9363194667517 409.19604356851113Q805.3146070725791 407.65715158826987 807.0213781779375 407.65715158826987L807.0213781779375 407.65715158826987Q809.2317866586478 407.65715158826987 810.4629002428409 409.36392269362835L810.4629002428409 409.36392269362835L815.4992739963577 415.9112085732003Q812.1696713481994 419.94030757601394 807.5250155532893 422.9061721197516Q802.9083396125654 425.8720366634894 797.6201471713728 427.80264660233746Q792.33195473018 429.7052766869994 786.6800241845665 430.6565917293304Q781.0280936389531 431.60790677166136 775.4880825100845 431.60790677166136L775.4880825100845 431.60790677166136Q764.911697627699 431.60790677166136 756.0141039964858 428.0544652900133Q747.0885305110864 424.4730439541791 740.5972043398868 417.56201997018644Q734.1058781686872 410.67897584038 730.4684971244806 400.49430891660137Q726.8590959344601 390.3096419928227 726.8590959344601 377.13113067112016L726.8590959344601 377.13113067112016Q726.8590959344601 366.44282637198984 730.1327388742461 357.18149463635604Q733.4063818140321 347.9201629007221 739.5339698808111 341.1210583334743Q745.6895378017762 334.3219537662265 754.5591515788032 330.432754034344Q763.4007855016439 326.5715341566477 774.4808077593812 326.5715341566477ZM774.9005055721742 339.7500454783503L774.9005055721742 339.7500454783503Q761.8898733755889 339.7500454783503 754.4472321620583 347.2486464002532Q747.0045909485278 354.7752271763423 745.1859004264245 368.0656579147897L745.1859004264245 368.0656579147897L800.669951277669 368.0656579147897Q800.669951277669 361.82615043126606 798.9631801723106 356.6218975526319Q797.2564090669521 351.44562452818394 793.9268064187936 347.6683442130463Q790.5972037706352 343.8910638979086 785.8126487047942 341.82055468812945Q781.0280936389531 339.7500454783503 774.9005055721742 339.7500454783503ZM841.6884175146456 281.8317473129058L859.5955241938169 281.8317473129058L859.5955241938169 430.2089140623511L841.6884175146456 430.2089140623511L841.6884175146456 281.8317473129058ZM953.6917738220245 338.4349923315986L949.6626748192109 344.9822782111706Q948.4595410892041 347.220666546067 945.9413542124457 347.220666546067L945.9413542124457 347.220666546067Q944.4304420863907 347.220666546067 942.4998321475424 346.1014723786188Q940.5972020628806 344.9822782111706 937.8271964984463 343.6392452102328Q935.0571909340119 342.26823235510875 931.2239509105018 341.1210583334743Q927.3907108869918 339.94590445765374 922.1584781541715 339.94590445765374L922.1584781541715 339.94590445765374Q917.6257417760062 339.94590445765374 913.9883607317995 341.1210583334743Q910.3789595417791 342.26823235510875 907.8048129566482 344.28278185651544Q905.2306663715174 346.29733135792225 903.8876333705795 348.98339735979795Q902.5166205154554 351.6414835074874 902.5166205154554 354.7752271763423L902.5166205154554 354.7752271763423Q902.5166205154554 358.69240676241105 904.7829887045381 361.3225130559144Q907.0493568936206 363.92463949523136 910.770677500386 365.85524943407955Q914.4919981071512 367.7578795187415 919.248573318806 369.21283193642415Q923.9771686762747 370.6677843541068 928.9575827214192 372.34657560527916Q933.9379967665637 373.99738700226516 938.6665921240324 376.01193650367196Q943.4231673356871 378.02648600507877 947.1444879424525 381.0483102571889Q950.8658085492177 384.07013450929907 953.1321767383004 388.46297161653325Q955.398544927383 392.8278288695812 955.398544927383 398.98339679054635L955.398544927383 398.98339679054635Q955.398544927383 406.03432004547 952.8803580506244 412.0220088413178Q950.362171173866 418.00969763716574 945.437716837094 422.40253474439993Q940.4852826461356 426.7953718516341 933.3504198286535 429.3135587283926Q926.187577156985 431.83174560515107 916.8143260046062 431.83174560515107L916.8143260046062 431.83174560515107Q906.1540015596621 431.83174560515107 897.4802467619386 428.3342638318754Q888.806491964215 424.86476191278604 882.7628434599947 419.43667020066215L882.7628434599947 419.43667020066215L887.0157812962979 412.58160592504197Q887.7992172135116 411.2665527782903 888.9184113809597 410.56705642363517Q890.037605548408 409.86756006898014 891.8283162163251 409.86756006898014L891.8283162163251 409.86756006898014Q893.6470067384284 409.86756006898014 895.6615562398351 411.2665527782903Q897.676105741242 412.6935253417868 900.5580307224211 414.4002964471453Q903.411975849414 416.1070675525038 907.4970345605999 417.50606026181407Q911.5820932717859 418.9330328253105 917.7376611927509 418.9330328253105L917.7376611927509 418.9330328253105Q922.9698939255713 418.9330328253105 926.88707351164 417.56201997018644Q930.832232951895 416.21898696924865 933.434359391212 413.89665907179364Q936.0644656847153 411.5743311743386 937.3235591230945 408.5525069222285Q938.5826525614739 405.5306826701183 938.5826525614739 402.11714045940124L938.5826525614739 402.11714045940124Q938.5826525614739 397.86420262309815 936.3162843723912 395.09419705866384Q934.0499161833086 392.3241914942295 930.3285955765432 390.3656017011952Q926.5792951155918 388.40701190816077 921.7947400497507 386.9520594904781Q917.0101849839097 385.4971070727955 912.0297709387652 383.8742755299956Q907.0493568936206 382.2514439871957 902.2648018277796 380.2089146316027Q897.4802467619386 378.1384054218235 893.7589261551733 375.0046617529686Q890.037605548408 371.89889793829985 887.7712373593254 367.3102018517622Q885.5048691702427 362.72150576522455 885.5048691702427 356.1742198856526L885.5048691702427 356.1742198856526Q885.5048691702427 350.32643036073574 887.9111366302564 344.95429835698434Q890.31740409027 339.5541864990468 894.9620598851801 335.4691277878608Q899.60671568009 331.38406907667496 906.3498605389655 328.97780161666134Q913.0930053978409 326.5715341566477 921.7667601955645 326.5715341566477L921.7667601955645 326.5715341566477Q931.8395077025983 326.5715341566477 939.841745999853 329.73325767968885Q947.8439842971077 332.89498120273 953.6917738220245 338.4349923315986L953.6917738220245 338.4349923315986ZM1019.9760483891442 326.5715341566477L1019.9760483891442 326.5715341566477Q1031.1400102094399 326.5715341566477 1040.149523257398 330.2928547634129Q1049.1870161595423 334.0141753701782 1055.4824833514385 340.8692396457985Q1061.7779505433346 347.72430392141865 1065.135533045679 357.4333133240319Q1068.52109540221 367.142322726645 1068.52109540221 379.14568017252697L1068.52109540221 379.14568017252697Q1068.52109540221 391.23297718096757 1065.135533045679 400.8860268752082Q1061.7779505433346 410.56705642363517 1055.4824833514385 417.42212069925546Q1049.1870161595423 424.27718497487564 1040.149523257398 427.94254587326856Q1031.1400102094399 431.60790677166136 1019.9760483891442 431.60790677166136L1019.9760483891442 431.60790677166136Q1008.7841067146622 431.60790677166136 999.774593666704 427.94254587326856Q990.7650806187461 424.27718497487564 984.4136537184776 417.42212069925546Q978.062226818209 410.56705642363517 974.648684607492 400.8860268752082Q971.2071625425888 391.23297718096757 971.2071625425888 379.14568017252697L971.2071625425888 379.14568017252697Q971.2071625425888 367.142322726645 974.648684607492 357.4333133240319Q978.062226818209 347.72430392141865 984.4136537184776 340.8692396457985Q990.7650806187461 334.0141753701782 999.774593666704 330.2928547634129Q1008.7841067146622 326.5715341566477 1019.9760483891442 326.5715341566477ZM1019.9760483891442 417.6179796785588L1019.9760483891442 417.6179796785588Q1035.0851696496948 417.6179796785588 1042.5278108632253 407.48927246315264Q1049.9704520767561 397.3605652477465 1049.9704520767561 379.2296197350856L1049.9704520767561 379.2296197350856Q1049.9704520767561 361.01473465986606 1042.5278108632253 350.8300677360874Q1035.0851696496948 340.673380666495 1019.9760483891442 340.673380666495L1019.9760483891442 340.673380666495Q1012.3095683421241 340.673380666495 1006.6576377965105 343.2755071058121Q1001.0336871050833 345.9056133993153 997.2564067899457 350.8300677360874Q993.479126474808 355.78250192704576 991.6044762443323 362.9733244529004Q989.7578058680429 370.1641469787551 989.7578058680429 379.2296197350856L989.7578058680429 379.2296197350856Q989.7578058680429 388.295092491416 991.6044762443323 395.4579351630845Q993.479126474808 402.6207778347529 997.2564067899457 407.48927246315264Q1001.0336871050833 412.3857469457385 1006.6576377965105 414.9878733850556Q1012.3095683421241 417.6179796785588 1019.9760483891442 417.6179796785588ZM1108.6162264510417 430.2089140623511L1090.6811399176845 430.2089140623511L1090.6811399176845 328.16638584526135L1101.3414643626284 328.16638584526135Q1105.1747043861387 328.16638584526135 1106.181979136842 331.88770645202663L1106.181979136842 331.88770645202663L1107.6089517003384 342.9677287097638Q1114.240177142469 335.63700691297817 1122.4662542732133 331.1042705348129Q1130.6643515497713 326.5715341566477 1141.4365954114603 326.5715341566477L1141.4365954114603 326.5715341566477Q1149.8025718131357 326.5715341566477 1156.2099584217767 329.34153972108203Q1162.5893651762312 332.11154528551623 1166.8702828667206 337.1758988932194Q1171.15120055721 342.26823235510875 1173.3616090379203 349.43107502677714Q1175.5999973728167 356.5659378442595 1175.5999973728167 365.239692641983L1175.5999973728167 365.239692641983L1175.5999973728167 430.2089140623511L1157.664910839459 430.2089140623511L1157.664910839459 365.239692641983Q1157.664910839459 353.6560330088941 1152.3767183982663 347.2486464002532Q1147.0885259570737 340.8692396457985 1136.2043626786399 340.8692396457985L1136.2043626786399 340.8692396457985Q1128.2580840897576 340.8692396457985 1121.3470601057652 344.7024796693085Q1114.4360361217723 348.5077398386324 1108.6162264510417 355.0550257182044L1108.6162264510417 355.0550257182044L1108.6162264510417 430.2089140623511Z " fill="white" transform="matrix(0.7443008109171871,0,0,0.7443008109171871,0,34.40984378353528)"/></g></svg>